<svg xmlns="http://www.w3.org/2000/svg" width="1000" height="360" viewBox="0 0 1000 360">
  <rect width="1000" height="360" fill="#0c1320"/>
  <g stroke="rgba(255,255,255,0.09)" stroke-width="1">
    <line x1="320" y1="60" x2="320" y2="300"/>
    <line x1="440" y1="60" x2="440" y2="300"/>
    <line x1="560" y1="60" x2="560" y2="300"/>
    <line x1="680" y1="60" x2="680" y2="300"/>
    <line x1="200" y1="120" x2="800" y2="120"/>
    <line x1="200" y1="180" x2="800" y2="180"/>
    <line x1="200" y1="240" x2="800" y2="240"/>
  </g>
  <rect x="500" y="60" width="300" height="120" fill="#16a34a" fill-opacity="0.10"/>
  <g stroke="rgba(34,197,94,0.40)" stroke-width="1.5" stroke-dasharray="5 5">
    <line x1="500" y1="60" x2="500" y2="300"/>
    <line x1="200" y1="180" x2="800" y2="180"/>
  </g>
  <g stroke="rgba(255,255,255,0.38)" stroke-width="2">
    <line x1="200" y1="300" x2="800" y2="300"/>
    <line x1="200" y1="60" x2="200" y2="300"/>
  </g>
  <g fill="#64748b">
    <circle cx="262" cy="252" r="6"/><circle cx="322" cy="212" r="6"/><circle cx="300" cy="280" r="6"/>
    <circle cx="420" cy="232" r="6"/><circle cx="380" cy="202" r="6"/><circle cx="462" cy="262" r="6"/>
    <circle cx="540" cy="244" r="6"/><circle cx="620" cy="252" r="6"/><circle cx="352" cy="162" r="6"/>
    <circle cx="282" cy="192" r="6"/>
  </g>
  <g fill="#22c55e">
    <circle cx="560" cy="132" r="8"/><circle cx="620" cy="110" r="8"/><circle cx="680" cy="150" r="8"/>
    <circle cx="722" cy="120" r="8"/><circle cx="600" cy="162" r="8"/><circle cx="660" cy="96" r="8"/>
  </g>
  <text x="500" y="340" text-anchor="middle" fill="rgba(255,255,255,0.55)" font-family="monospace" font-size="18">AWI</text>
  <text x="158" y="180" text-anchor="middle" fill="rgba(255,255,255,0.55)" font-family="monospace" font-size="18" transform="rotate(-90 158 180)">PQI</text>
</svg>
