<svg xmlns="http://www.w3.org/2000/svg" viewBox="0 0 640 360" role="img" aria-label="xG Dashboard preview">
  <defs>
    <linearGradient id="bg" x1="0" y1="0" x2="1" y2="1">
      <stop offset="0" stop-color="#0f172a"/>
      <stop offset="1" stop-color="#111827"/>
    </linearGradient>
    <linearGradient id="bar" x1="0" y1="0" x2="0" y2="1">
      <stop offset="0" stop-color="#22c55e"/>
      <stop offset="1" stop-color="#16a34a"/>
    </linearGradient>
  </defs>
  <rect width="640" height="360" fill="url(#bg)"/>
  <text x="32" y="52" font-family="DM Sans, sans-serif" font-size="20" font-weight="600" fill="#e5e7eb">xG Dashboard</text>
  <text x="32" y="76" font-family="DM Sans, sans-serif" font-size="12" fill="#94a3b8">Expected Goals · StatsBomb</text>
  <g transform="translate(32,110)">
    <line x1="0" y1="200" x2="576" y2="200" stroke="#334155" stroke-width="1"/>
    <g fill="url(#bar)">
      <rect x="10"  y="110" width="42" height="90"/>
      <rect x="70"  y="60"  width="42" height="140"/>
      <rect x="130" y="140" width="42" height="60"/>
      <rect x="190" y="30"  width="42" height="170"/>
      <rect x="250" y="90"  width="42" height="110"/>
      <rect x="310" y="70"  width="42" height="130"/>
      <rect x="370" y="120" width="42" height="80"/>
      <rect x="430" y="50"  width="42" height="150"/>
      <rect x="490" y="100" width="42" height="100"/>
    </g>
    <polyline points="31,120 91,80 151,150 211,50 271,110 331,90 391,140 451,70 511,120"
      fill="none" stroke="#f59e0b" stroke-width="3"/>
  </g>
</svg>
